<?xml version="1.0" standalone="no"?>
<!DOCTYPE svg PUBLIC "-//W3C//DTD SVG 20010904//EN"
 "http://www.w3.org/TR/2001/REC-SVG-20010904/DTD/svg10.dtd">
<svg version="1.0" xmlns="http://www.w3.org/2000/svg"
 width="475.000000pt" height="248.000000pt" viewBox="0 0 475.000000 248.000000"
 preserveAspectRatio="xMidYMid meet">

<g transform="translate(0.000000,248.000000) scale(0.100000,-0.100000)"
fill="#2978b5" stroke="none">
<path d="M748 2038 c-86 -238 -270 -746 -408 -1128 -139 -382 -269 -743 -290
-802 l-39 -108 312 0 312 0 73 220 73 220 467 0 467 0 73 -220 73 -220 315 0
315 0 -7 23 c-3 12 -203 566 -444 1232 l-438 1210 -349 3 -349 2 -156 -432z
m658 -678 c81 -239 149 -441 151 -447 4 -10 -61 -13 -307 -13 -171 0 -310 3
-308 8 2 4 70 209 153 454 82 246 153 444 157 440 4 -4 73 -203 154 -442z"/>
<path d="M2770 1235 l0 -1235 583 0 c580 0 747 7 862 36 335 84 525 313 525
634 0 153 -45 280 -140 397 -59 73 -172 152 -255 177 -62 19 -92 36 -63 36 9
0 52 18 97 41 144 72 247 197 286 347 21 83 21 251 0 334 -56 214 -230 372
-485 440 -83 22 -99 22 -747 25 l-663 4 0 -1236z m1092 754 c95 -20 152 -61
191 -134 16 -31 21 -59 21 -120 1 -100 -25 -161 -87 -204 -77 -51 -95 -54
-364 -59 l-253 -4 0 266 0 266 220 0 c124 0 242 -5 272 -11z m49 -962 c122
-29 198 -100 219 -204 25 -118 -11 -224 -94 -280 -76 -52 -100 -56 -393 -60
l-273 -5 0 281 0 281 243 0 c164 0 260 -5 298 -13z"/>
</g>
</svg>
